<?xml version="1.0" standalone="no"?>
<!DOCTYPE svg PUBLIC "-//W3C//DTD SVG 20010904//EN"
 "http://www.w3.org/TR/2001/REC-SVG-20010904/DTD/svg10.dtd">
<svg version="1.0" xmlns="http://www.w3.org/2000/svg"
 width="270.000000pt" height="159.000000pt" viewBox="0 0 270.000000 159.000000"
 preserveAspectRatio="xMidYMid meet">

<g transform="translate(0.000000,159.000000) scale(0.100000,-0.100000)"
fill="#000000" stroke="none">
<path d="M0 795 l0 -795 1350 0 1350 0 0 795 0 795 -1350 0 -1350 0 0 -795z
m580 333 l155 -358 3 349 2 349 50 6 c28 3 73 9 100 12 l50 6 0 -605 0 -605
-62 -6 c-35 -4 -79 -9 -98 -12 l-36 -5 -174 375 -175 375 -3 -364 -2 -365 -43
0 c-23 0 -72 -3 -109 -7 l-68 -6 0 606 0 606 73 4 c39 2 97 3 127 3 l54 -1
156 -357z m1220 -395 c0 -30 -13 -41 -50 -45 -30 -3 -35 -7 -38 -30 -3 -26 -1
-28 32 -28 33 0 36 -2 36 -30 0 -28 -3 -30 -35 -30 l-35 0 0 -120 0 -120 -40
0 -40 0 0 120 0 120 -25 0 c-18 0 -25 5 -25 19 0 10 11 26 25 35 19 12 25 25
25 51 0 54 30 75 107 75 53 0 63 -3 63 -17z m110 -193 l0 -210 -40 0 -40 0 0
210 0 210 40 0 40 0 0 -210z m-450 125 c0 -34 1 -35 40 -35 38 0 40 -2 40 -30
0 -28 -2 -30 -40 -30 l-40 0 0 -79 c0 -90 11 -107 61 -97 29 6 30 5 27 -27 -3
-32 -3 -32 -64 -35 -57 -3 -64 -1 -83 24 -18 23 -21 40 -21 120 0 87 -1 94
-20 94 -27 0 -26 36 1 50 11 7 27 27 35 46 11 26 20 34 39 34 22 0 25 -4 25
-35z m-230 -43 c41 -20 70 -71 70 -124 l0 -38 -100 0 c-90 0 -99 -2 -93 -17
14 -40 35 -53 85 -53 27 0 58 5 69 10 17 10 19 7 19 -23 0 -41 -13 -47 -104
-47 -105 0 -151 47 -151 156 0 48 5 70 21 91 25 35 79 63 119 63 17 0 46 -8
65 -18z m979 -9 c56 -42 77 -135 47 -208 -42 -101 -220 -101 -262 0 -35 84 -5
190 63 219 47 20 116 15 152 -11z m352 11 c39 -20 59 -68 59 -144 0 -99 -39
-150 -115 -150 -22 0 -51 7 -63 16 l-22 15 0 -80 0 -81 -40 0 -40 0 0 215 0
215 34 0 c21 0 36 -6 40 -15 5 -13 10 -12 38 5 40 24 69 25 109 4z"/>
<path d="M1126 564 c-31 -31 -20 -44 39 -44 41 0 55 4 55 14 0 22 -29 46 -55
46 -13 0 -31 -7 -39 -16z"/>
<path d="M2080 555 c-18 -22 -24 -91 -10 -124 23 -57 91 -54 110 5 13 39 8 97
-11 120 -15 18 -73 18 -89 -1z"/>
<path d="M2442 557 c-17 -20 -25 -65 -18 -102 12 -63 57 -84 96 -45 25 25 27
105 4 138 -17 25 -65 30 -82 9z"/>
</g>
</svg>
